<svg width="115" height="98" viewBox="0 0 115 98" fill="none" xmlns="http://www.w3.org/2000/svg">
<path d="M17.0517 70.9693C18.7235 70.7153 20.3329 69.9561 21.8801 68.6915C23.4736 67.4144 24.9687 65.8656 26.3653 64.0451C27.7618 62.2246 29.0556 60.2082 30.2466 57.9958C31.4713 55.7246 32.557 53.491 33.5038 51.2951C34.4506 49.0991 35.254 47.0166 35.9141 45.0475C36.608 43.0195 37.133 41.2859 37.4891 39.8468C37.6714 39.0514 37.9986 38.5152 38.4706 38.2382C38.9426 37.9611 39.3953 37.8882 39.8287 38.0195C40.2495 38.1044 40.5753 38.3891 40.806 38.8736C41.0831 39.3456 41.1241 39.9561 40.9292 40.7051C39.6032 45.54 38.103 50.0989 36.4286 54.3817C34.7417 58.6182 32.824 62.3701 30.6756 65.6375C28.5735 68.8924 26.2093 71.5469 23.5831 73.601C21.0157 75.689 18.1297 76.9681 14.9252 77.4383C12.8828 77.7927 11.0561 77.5664 9.44508 76.7596C7.89295 75.9865 6.53095 74.8139 5.35908 73.2416C4.22098 71.6104 3.29184 69.6491 2.57165 67.3577C1.80513 65.0789 1.25577 62.592 0.92358 59.8971C0.48711 56.6337 0.349848 53.1898 0.511798 49.5653C0.673749 45.9409 1.06929 42.3527 1.69841 38.8006C2.37386 35.236 3.29739 31.8528 4.46899 28.6511C5.68692 25.4368 7.13992 22.6313 8.82796 20.2345C10.516 17.8378 12.4179 15.955 14.5336 14.5862C16.6956 13.2048 19.0647 12.5879 21.6409 12.7354C23.249 12.7971 24.5675 13.534 25.5965 14.9461C26.6593 16.2992 27.4856 18.0646 28.0755 20.2421C28.6529 22.3733 29.0318 24.782 29.2125 27.4682C29.3931 30.1544 29.4285 32.8551 29.3187 35.5703C29.2088 38.2855 28.9749 40.91 28.6169 43.4437C28.2464 45.9311 27.8112 48.0879 27.3113 49.9142C27.1463 50.4064 26.6406 50.7424 25.7941 50.922C24.9476 51.1015 24.074 51.0895 23.1735 50.8859C22.3192 50.6697 21.5958 50.2938 21.0031 49.7582C20.4442 49.1636 20.3824 48.3847 20.8176 47.4214C21.1178 46.6936 21.4483 45.4354 21.8092 43.6468C22.1701 41.8582 22.4977 39.8549 22.7919 37.6368C23.0736 35.3723 23.267 33.0572 23.3721 30.6914C23.4646 28.2793 23.3989 26.109 23.1748 24.1805C22.9508 22.252 22.5366 20.7231 21.9323 19.5938C21.328 18.4645 20.4574 18.0042 19.3203 18.2127C18.1959 18.4676 17.0975 19.4614 16.0252 21.194C14.9867 22.8678 14.0274 25.0174 13.1473 27.6429C12.2546 30.222 11.4792 33.1423 10.8211 36.4039C10.1968 39.6065 9.7134 42.8705 9.37094 46.1957C9.0748 49.5084 8.95144 52.7245 9.00084 55.8441C9.09658 58.9512 9.43505 61.6692 10.0162 63.9983C10.5974 66.3274 11.4658 68.1559 12.6212 69.484C13.7641 70.7658 15.241 71.2609 17.0517 70.9693Z" fill="black"/>
<path d="M42.5294 55.5636C42.3566 55.6601 42.1018 55.7291 41.765 55.7706C41.487 55.8459 41.1101 55.9232 40.6342 56.0024C39.7539 56.2408 38.4388 55.9755 36.6888 55.2063C34.9513 54.4834 33.4552 52.999 32.2002 50.753C32.0912 50.5339 31.999 50.2853 31.9237 50.0074C31.802 49.7419 31.7036 49.4702 31.6282 49.1922C31.0712 47.5031 30.6874 45.4438 30.4769 43.0144C30.22 40.5975 30.1595 37.8041 30.2954 34.6343C30.385 31.477 30.6367 28.2758 31.0506 25.0307C31.452 21.7393 31.9923 18.4102 32.6716 15.0434C33.3635 11.723 34.1114 8.88473 34.9153 6.52856C35.753 4.11352 36.6235 2.18687 37.5269 0.748636C37.8348 0.416581 38.1509 0.206625 38.4752 0.118771C38.8458 0.0183663 39.311 -0.00820405 39.8709 0.0390604C40.477 0.0737742 41.1735 0.258093 41.9601 0.592015L42.4336 0.687546C43.8853 1.08996 44.7579 1.64926 45.0514 2.36544C45.1605 2.58454 45.0968 2.90018 44.8603 3.31234C43.0073 6.20137 41.4496 9.90551 40.1873 14.4248C38.984 18.9778 38.172 23.5989 37.7514 28.288C37.2382 33.0022 37.1738 37.4456 37.5582 41.6183C37.7678 44.595 38.2139 47.1596 38.8964 49.312C39.0431 49.6701 39.2213 50.144 39.4307 50.7337C39.674 51.2646 39.9718 51.905 40.3242 52.655C41.1215 54.1298 42.5458 54.6143 44.5968 54.1084C44.0988 54.84 43.4097 55.3251 42.5294 55.5636Z" fill="black"/>
<path d="M57.6407 21.259C57.7759 21.0234 57.9887 20.8912 58.2792 20.8622C58.6161 20.8207 58.9486 20.8549 59.2768 20.965C59.605 21.075 59.8825 21.2733 60.1093 21.56C60.3236 21.8003 60.3821 22.1077 60.2846 22.4822C60.1718 24.4523 59.8041 26.4913 59.1817 28.5994C58.593 30.6486 57.817 32.6491 56.8539 34.6009C55.8907 36.5526 54.8203 38.3842 53.6429 40.0956C52.4654 41.807 51.2483 43.2805 49.9917 44.5161C49.3971 45.075 48.6935 45.4148 47.8808 45.5355C47.068 45.6562 46.224 45.661 45.3485 45.5501C44.4605 45.3928 43.6294 45.1704 42.8553 44.8828C42.0811 44.5952 41.4291 44.2994 40.8992 43.9954C39.7679 43.3072 38.9488 42.2113 38.442 40.7075C37.9226 39.1573 37.6499 37.4161 37.6237 35.4837C37.5512 33.5639 37.6915 31.5118 38.0447 29.3275C38.3978 27.1431 38.875 25.0495 39.4762 23.0467C40.1238 21.0312 40.8741 19.2117 41.7273 17.5882C42.5805 15.9646 43.4583 14.7074 44.3607 13.8164C44.9215 13.3164 45.4798 12.9911 46.0358 12.8405C46.5792 12.6435 47.1834 12.5793 47.8485 12.6478C48.501 12.67 49.1848 12.8079 49.9001 13.0618C50.6491 13.2567 51.4802 13.4791 52.3933 13.7291C53.6935 14.1228 54.4416 14.865 54.6376 15.9557C54.7757 16.4653 54.8119 17.4253 54.7464 18.8354C54.7272 20.2331 54.5414 21.7505 54.1892 23.3875C53.8708 24.9657 53.3482 26.5245 52.6214 28.0641C51.9285 29.5448 50.9899 30.6694 49.8056 31.4377C48.9417 31.9204 48.1498 32.2095 47.4297 32.3051C46.7097 32.4007 45.8825 32.3762 44.9481 32.2314C44.842 32.7575 44.7754 33.5215 44.7485 34.5234C44.7089 35.479 44.7452 36.4389 44.8572 37.4031C44.9692 38.3674 45.1488 39.2139 45.3959 39.9426C45.6305 40.625 46.0152 40.9435 46.5499 40.8981C47.3289 40.8363 48.2646 40.1601 49.3572 38.8695C50.4961 37.5664 51.606 35.9728 52.6869 34.0886C53.7553 32.1581 54.7504 30.0485 55.672 27.7599C56.5937 25.4713 57.25 23.3043 57.6407 21.259ZM49.2981 17.9989C48.9226 18.4487 48.4898 19.2374 47.9995 20.3648C47.543 21.4333 47.1053 22.5713 46.6865 23.7788C46.314 24.9738 45.9921 26.0805 45.721 27.0988C45.4961 28.1046 45.4151 28.7233 45.4778 28.955C46.3494 28.868 47.0449 28.4061 47.5641 27.5692C48.1297 26.7198 48.5587 25.7333 48.8511 24.6098C49.1772 23.4274 49.3519 22.2363 49.375 21.0365C49.4444 19.8242 49.4188 18.8116 49.2981 17.9989Z" fill="black"/>
<path d="M72.0532 19.2942C72.2809 19.0336 72.542 18.9877 72.8364 19.1566C73.1308 19.3255 73.3809 19.6059 73.5865 19.9978C73.7795 20.3433 73.8925 20.7603 73.9253 21.2487C73.9456 21.6907 73.8187 22.0484 73.5446 22.3215C72.342 23.9403 70.7422 25.1942 68.7452 26.0833C66.7946 26.9598 64.7266 27.4952 62.5413 27.6893C63.6562 28.1333 64.5496 28.861 65.2214 29.8725C65.8807 30.8377 66.3629 31.9752 66.668 33.285C67.0194 34.5822 67.2043 35.9992 67.2228 37.5358C67.275 39.0136 67.2283 40.4933 67.0826 41.9749C66.9244 43.4102 66.6947 44.7654 66.3937 46.0405C66.1051 47.3619 65.8064 48.4622 65.4976 49.3416C64.9475 50.9825 64.0658 52.0419 62.8526 52.5198C61.6519 53.0439 60.2137 53.3341 58.538 53.3902C57.5612 53.4558 56.7659 53.2735 56.152 52.843C55.5381 52.4126 55.038 51.8518 54.6519 51.1607C54.232 50.5285 53.9154 49.8186 53.702 49.031C53.4761 48.197 53.3153 47.4201 53.2197 46.7C53.0199 45.4114 52.9493 43.5905 53.008 41.2373C53.0079 38.8503 53.1366 36.2046 53.3942 33.3002C53.5928 30.3621 53.9348 27.3105 54.4202 24.1455C54.8466 20.9467 55.4097 17.885 56.1093 14.9603C56.7964 11.9893 57.6051 9.28369 58.5354 6.84354C59.4658 4.4034 60.511 2.47916 61.6711 1.07083C62.0466 0.621013 62.6551 0.48102 63.4968 0.650849C64.326 0.774352 65.1295 1.07884 65.9075 1.5643C66.7318 2.03721 67.3834 2.60666 67.8622 3.27264C68.3284 3.89229 68.3632 4.47962 67.9665 5.03465C67.0342 6.18236 66.169 7.48595 65.3708 8.94542C64.619 10.3923 63.9386 11.9194 63.3296 13.5265C62.7206 15.1336 62.2169 16.762 61.8183 18.4116C61.4198 20.0612 61.154 21.65 61.0209 23.1779C62.0141 23.3564 63.0454 23.4003 64.1149 23.3095C65.1718 23.1724 66.1805 22.9489 67.1408 22.639C68.135 22.2702 69.0577 21.8213 69.909 21.2923C70.7478 20.717 71.4625 20.051 72.0532 19.2942ZM60.4475 48.3226C60.8615 47.4645 61.2191 46.3979 61.5201 45.1228C61.8087 43.8014 62.0152 42.4525 62.1396 41.0761C62.3104 39.6871 62.3653 38.3295 62.3044 37.0033C62.2899 35.6645 62.1277 34.5149 61.8178 33.5546C61.6797 33.0449 61.4722 32.5541 61.1951 32.0821C60.9518 31.5513 60.599 31.075 60.1366 30.6532C60.0392 31.0277 59.9456 31.6001 59.8559 32.3703C59.7999 33.0817 59.7396 33.8689 59.675 34.7318C59.6442 35.5358 59.6071 36.3167 59.5637 37.0744C59.5203 37.8321 59.4856 38.4383 59.4595 38.8929C59.3853 40.4546 59.3993 42.067 59.5018 43.7301C59.5916 45.3469 59.9069 46.8777 60.4475 48.3226Z" fill="black"/>
<path d="M48.8376 42.8892C49.3521 42.4017 50.0639 42.184 50.9732 42.2361C51.8699 42.2419 52.7178 42.4349 53.5171 42.8151C54.3501 43.1365 54.9934 43.5838 55.4471 44.1571C55.8882 44.6841 55.9274 45.1957 55.5645 45.6918C54.1003 47.6301 52.8307 50.2865 51.7557 53.661C50.7144 56.9766 49.8937 60.5558 49.2935 64.3984C48.6934 68.241 48.3268 72.1197 48.1938 76.0347C48.1072 79.9371 48.2864 83.4443 48.7316 86.5561C49.2231 89.6554 49.9935 92.1322 51.0428 93.9863C52.1259 95.7816 53.5202 96.5228 55.2257 96.2099C54.968 96.7273 54.4811 97.1328 53.7649 97.4262C53.0613 97.766 52.2254 97.893 51.2573 97.8071C50.348 97.7551 49.3697 97.4482 48.3224 96.8865C47.3215 96.3122 46.3842 95.4223 45.5106 94.2168C44.637 93.0113 43.8966 91.4713 43.2893 89.5969C42.6695 87.6761 42.3031 85.3138 42.19 82.5098C42.1398 82.3245 42.0915 82.2381 42.0452 82.2506C41.9863 82.2169 41.9357 82.3052 41.8932 82.5156C41.6983 83.2646 41.4696 84.0725 41.2071 84.9393C40.9446 85.8061 40.6295 86.6623 40.2618 87.5078C39.9278 88.2945 39.5751 89.0117 39.2035 89.6594C38.8783 90.2945 38.5492 90.7318 38.2162 90.9712C37.7104 91.3071 37.0574 91.5586 36.2573 91.7256C35.5034 91.8801 34.7414 91.9125 33.9712 91.8228C33.142 91.6993 32.3973 91.4286 31.7371 91.0107C31.0768 90.5927 30.6106 89.9731 30.3384 89.1517C29.9908 88.0523 29.7721 86.6943 29.6823 85.0775C29.5461 83.4733 29.5532 81.7557 29.7037 79.9247C29.8078 78.1062 30.051 76.25 30.4331 74.3562C30.8152 72.4624 31.317 70.7351 31.9385 69.1743C32.5938 67.5546 33.3645 66.1772 34.2505 65.042C35.1703 63.848 36.2199 63.0415 37.3994 62.6225C38.3135 62.3252 39.2145 62.2551 40.1025 62.4124C41.0369 62.5571 41.9249 62.7144 42.7666 62.8843C42.8138 62.3244 42.9436 61.5184 43.1559 60.4663C43.3556 59.3679 43.5998 58.1579 43.8883 56.8365C44.1768 55.5151 44.4991 54.1348 44.8552 52.6957C45.2576 51.2439 45.6557 49.868 46.0494 48.5678C46.4895 47.2551 46.9503 46.1108 47.4319 45.1349C47.901 44.1127 48.3695 43.3641 48.8376 42.8892ZM41.5695 68.654C41.5917 68.0015 41.4599 67.515 41.1742 67.1946C40.9223 66.8153 40.4802 66.8356 39.848 67.2555C39.2621 67.6628 38.7115 68.3839 38.1961 69.4187C37.7271 70.4409 37.302 71.6252 36.9208 72.9717C36.527 74.2719 36.1984 75.629 35.935 77.0431C35.7179 78.4446 35.5747 79.7516 35.5052 80.9639C35.4696 82.1173 35.5121 83.1004 35.6328 83.9131C35.7998 84.7133 36.0875 85.1327 36.4958 85.1712C36.7062 85.2137 36.9909 84.8879 37.35 84.1939C37.709 83.4999 38.0641 82.608 38.4154 81.5182C38.813 80.4159 39.2087 79.2147 39.6025 77.9145C39.9836 76.568 40.3079 75.2866 40.5752 74.0704C40.8763 72.7953 41.1223 71.6844 41.3134 70.7375C41.4919 69.7442 41.5773 69.0497 41.5695 68.654Z" fill="black"/>
<path d="M69.959 62.9775C70.0941 62.742 70.307 62.6097 70.5975 62.5808C70.9343 62.5392 71.2669 62.5735 71.5951 62.6835C71.9232 62.7935 72.2007 62.9919 72.4276 63.2785C72.6419 63.5188 72.7003 63.8263 72.6028 64.2008C72.49 66.1708 72.1224 68.2099 71.4999 70.318C70.9113 72.3672 70.1353 74.3676 69.1721 76.3194C68.209 78.2711 67.1386 80.1027 65.9611 81.8141C64.7837 83.5255 63.5666 84.999 62.3099 86.2346C61.7154 86.7935 61.0118 87.1333 60.1991 87.254C59.3863 87.3747 58.5423 87.3796 57.6668 87.2686C56.7788 87.1113 55.9477 86.8889 55.1736 86.6013C54.3994 86.3137 53.7474 86.0179 53.2175 85.7139C52.0862 85.0258 51.2671 83.9298 50.7603 82.426C50.2409 80.8759 49.9682 79.1346 49.942 77.2022C49.8695 75.2824 50.0098 73.2303 50.363 71.046C50.7161 68.8617 51.1933 66.7681 51.7945 64.7652C52.4421 62.7497 53.1924 60.9302 54.0456 59.3067C54.8987 57.6831 55.7765 56.4258 56.679 55.5349C57.2397 55.0348 57.7981 54.7095 58.3541 54.5589C58.8975 54.362 59.5017 54.2978 60.1667 54.3663C60.8192 54.3884 61.5031 54.5264 62.2184 54.7802C62.9674 54.9752 63.7985 55.1976 64.7116 55.4476C66.0118 55.8413 66.7599 56.5835 66.9559 57.6742C67.0939 58.1839 67.1302 59.1438 67.0646 60.554C67.0454 61.9516 66.8597 63.469 66.5075 65.106C66.189 66.6842 65.6665 68.2431 64.9397 69.7826C64.2468 71.2633 63.3082 72.3879 62.1239 73.1563C61.26 73.6389 60.4681 73.9281 59.748 74.0237C59.028 74.1193 58.2008 74.0947 57.2664 73.95C57.1603 74.476 57.0937 75.24 57.0668 76.2419C57.0272 77.1975 57.0635 78.1574 57.1755 79.1217C57.2875 80.0859 57.4671 80.9324 57.7142 81.6611C57.9488 82.3435 58.3335 82.662 58.8682 82.6166C59.6472 82.5548 60.5829 81.8786 61.6755 80.5881C62.8144 79.2849 63.9243 77.6913 65.0052 75.8071C66.0736 73.8766 67.0686 71.767 67.9903 69.4784C68.912 67.1898 69.5682 65.0228 69.959 62.9775ZM61.6164 59.7174C61.2409 60.1673 60.8081 60.9559 60.3178 62.0833C59.8613 63.1518 59.4236 64.2898 59.0048 65.4974C58.6323 66.6923 58.3104 67.799 58.0393 68.8173C57.8144 69.8231 57.7334 70.4418 57.7961 70.6735C58.6677 70.5866 59.3631 70.1246 59.8824 69.2878C60.448 68.4383 60.877 67.4519 61.1694 66.3283C61.4955 65.1459 61.6702 63.9548 61.6933 62.755C61.7627 61.5427 61.7371 60.5302 61.6164 59.7174Z" fill="black"/>
<path d="M86.9323 41.0965C87.5558 40.8281 88.341 40.7895 89.2879 40.9805C90.2348 41.1716 90.9375 41.3791 91.396 41.603C91.2609 41.8385 91.1533 41.992 91.0731 42.0634C91.0268 42.076 90.9573 42.0948 90.8647 42.1199C90.7594 42.0987 90.6079 42.09 90.41 42.0939C90.2585 42.0852 90.05 42.1417 89.7846 42.2633C89.1273 42.5905 88.2335 43.33 87.1033 44.4816C85.9605 45.5868 84.8028 46.8205 83.6302 48.1825C82.4449 49.4981 81.3524 50.7887 80.3525 52.0542C79.3864 53.2608 78.7745 54.1228 78.5168 54.6401C78.8488 54.948 79.1746 55.2327 79.4941 55.4943C79.8136 55.7559 80.1394 56.0406 80.4714 56.3485C81.5053 57.4111 82.1453 58.5805 82.3915 59.8565C82.6377 61.1325 82.5765 62.4669 82.2078 63.8598C81.873 65.1937 81.2876 66.5209 80.4518 67.8414C79.616 69.1619 78.6668 70.339 77.6041 71.3729C76.8957 72.0621 76.0338 72.6437 75.0184 73.1177C74.0619 73.6254 73.0846 73.9648 72.0866 74.1357C71.0548 74.3654 70.0779 74.4311 69.1561 74.3327C68.188 74.2469 67.3907 73.9656 66.7643 73.4888C66.0789 72.9782 65.617 72.2828 65.3786 71.4025C65.0938 70.5348 65.142 69.4277 65.5232 68.0812C66.1118 66.032 67.0562 64.0107 68.3562 62.0175C69.61 60.0367 70.9351 58.1361 72.3317 56.3156C71.1714 55.337 70.0068 54.4341 68.8379 53.6069C67.7027 52.7209 66.791 51.65 66.1027 50.3943C65.4984 49.265 65.1258 48.073 64.9848 46.8182C64.7849 45.5296 64.7892 44.2603 64.9976 43.0103C65.206 41.7604 65.5785 40.5654 66.1151 39.4254C66.6855 38.2266 67.3862 37.1416 68.2172 36.1706C68.639 35.7082 69.2036 35.4061 69.9111 35.2641C70.6061 35.0759 71.3324 35.0034 72.0901 35.0468C72.8478 35.0902 73.5486 35.1988 74.1924 35.3725C74.8825 35.5336 75.4211 35.6861 75.8082 35.8299C76.4857 33.5577 77.139 31.8391 77.7683 30.674C78.4313 29.4501 78.9718 28.508 79.3897 27.8477C79.6513 27.5282 80.1102 27.4785 80.7666 27.6985C81.4104 27.8722 82.0456 28.1975 82.672 28.6743C83.3323 29.0922 83.8598 29.5709 84.2546 30.1104C84.6957 30.6374 84.7855 31.0607 84.524 31.3802C83.9207 32.0906 83.2601 33.1399 82.542 34.5279C81.824 35.9159 81.1943 37.3546 80.6529 38.844C80.1115 40.3334 79.7491 41.7494 79.5658 43.092C79.4162 44.3758 79.604 45.3444 80.1291 45.9978C79.9226 46.1533 79.592 46.2179 79.1374 46.1919C78.7291 46.1533 78.2788 46.0515 77.7865 45.8865C77.3406 45.7089 76.899 45.4556 76.4617 45.1264C76.0119 44.751 75.6485 44.3273 75.3714 43.8553C75.1784 43.5098 75.0654 43.0928 75.0326 42.6044C74.9872 42.0696 74.9712 41.5518 74.9847 41.0508C74.9982 40.5499 75.0411 40.0658 75.1135 39.5987C75.1858 39.1315 75.237 38.7695 75.2669 38.5128C74.374 38.7049 73.6719 39.4173 73.1604 40.6499C72.6827 41.8236 72.4467 43.1557 72.4526 44.646C72.4585 46.1363 72.7149 47.6334 73.2217 49.1372C73.716 50.5946 74.5413 51.7138 75.6977 52.4946C76.4274 51.7002 77.2584 50.7291 78.1907 49.5814C79.1694 48.4211 80.1543 47.284 81.1455 46.1701C82.1242 45.0098 83.1111 43.9716 84.1062 43.0556C85.1476 42.127 86.0896 41.4739 86.9323 41.0965ZM70.6414 69.9023C71.2774 69.6802 71.9478 69.1257 72.6523 68.2386C73.3907 67.2926 74.005 66.2559 74.4953 65.1285C75.0319 63.9886 75.3769 62.8756 75.5303 61.7897C75.73 60.6913 75.6093 59.8786 75.1682 59.3516C74.0959 61.0842 73.0994 62.8212 72.1787 64.5625C71.2917 66.245 70.7793 68.0249 70.6414 69.9023Z" fill="#0d6efd"/>
<path d="M105.166 46.4512C105.524 46.3045 105.817 46.3745 106.044 46.6611C106.304 46.8889 106.491 47.2113 106.604 47.6282C106.704 47.9989 106.706 48.3715 106.608 48.746C106.557 49.1079 106.416 49.3203 106.184 49.383C105.156 49.8107 104.173 50.1269 103.233 50.3315C102.294 50.5362 101.143 50.5995 99.7789 50.5214C99.6728 51.0475 99.5474 51.7777 99.4026 52.712C99.2454 53.6 99.008 54.5595 98.6905 55.5904C98.4068 56.5624 98.0072 57.5657 97.4918 58.6005C97.0102 59.5763 96.3921 60.4152 95.6373 61.1169C95.009 61.7347 94.0968 62.131 92.9009 62.3058C91.7388 62.4217 90.5096 62.3817 89.2133 62.1858C87.9633 61.9774 86.7915 61.5986 85.6979 61.0494C84.6042 60.5003 83.8161 59.7938 83.3334 58.9299C82.6239 57.7794 82.1842 56.4315 82.0142 54.8862C81.8442 53.3409 81.8258 51.8043 81.9589 50.2763C82.0795 48.702 82.3535 47.2353 82.781 45.8762C83.1497 44.4834 83.5767 43.3979 84.0622 42.6199C84.2311 42.3255 84.4294 42.048 84.6572 41.7874C84.885 41.5268 85.0833 41.2493 85.2522 40.9548C84.8033 40.0321 84.4239 39.0906 84.1141 38.1302C83.7916 37.1235 83.7597 36.0878 84.0183 35.0231C84.2345 34.1689 84.9661 33.4734 86.2131 32.9367C87.4939 32.341 88.9089 32.0572 90.4581 32.0851C92.0537 32.1004 93.6043 32.5009 95.1101 33.2865C96.6159 34.0721 97.7357 35.3602 98.4693 37.1506C99.1654 38.8021 99.5877 40.4531 99.7365 42.1036C99.9315 43.7416 100.07 45.4448 100.151 47.2131C100.643 47.3781 101.371 47.4046 102.336 47.2926C103.346 47.168 104.29 46.8875 105.166 46.4512ZM89.6793 59.2249C91.1975 57.6699 92.1791 56.0613 92.6239 54.3991C93.1152 52.7244 93.4654 50.9884 93.6748 49.1912C91.752 48.5185 90.1183 47.4443 88.7737 45.9686C88.6048 46.263 88.4731 46.97 88.3785 48.0897C88.284 49.2094 88.2334 50.4912 88.2267 51.9352C88.2538 53.3203 88.3799 54.7034 88.6049 56.0846C88.8173 57.4195 89.1754 58.4663 89.6793 59.2249ZM93.6441 44.9476C93.7464 44.2236 93.7246 43.409 93.5788 42.5036C93.4205 41.5519 93.1757 40.6484 92.8446 39.7932C92.5473 38.8792 92.2118 38.0998 91.8382 37.455C91.4984 36.7514 91.1919 36.2625 90.9188 35.9884C90.4285 37.1158 90.4262 38.4841 90.9118 40.0931C91.4437 41.6895 92.3545 43.3077 93.6441 44.9476Z" fill="black"/>
<path d="M112.385 55.8474C112.212 55.9439 111.957 56.013 111.62 56.0545C111.342 56.1298 110.966 56.207 110.49 56.2862C109.609 56.5247 108.294 56.2593 106.544 55.4901C104.807 54.7673 103.311 53.2828 102.056 51.0368C101.947 50.8177 101.854 50.5692 101.779 50.2912C101.657 50.0258 101.559 49.7541 101.484 49.4761C100.927 47.787 100.543 45.7277 100.332 43.2982C100.075 40.8813 100.015 38.0879 100.151 34.9181C100.24 31.7609 100.492 28.5596 100.906 25.3145C101.307 22.0231 101.848 18.694 102.527 15.3272C103.219 12.0068 103.967 9.16852 104.771 6.81235C105.608 4.39731 106.479 2.47066 107.382 1.03243C107.69 0.700371 108.006 0.490415 108.331 0.40256C108.701 0.302156 109.166 0.275588 109.726 0.322852C110.332 0.357566 111.029 0.54188 111.816 0.875803L112.289 0.971335C113.741 1.37375 114.613 1.93305 114.907 2.64923C115.016 2.86833 114.952 3.18396 114.716 3.59613C112.863 6.48516 111.305 10.1893 110.043 14.7086C108.839 19.2616 108.027 23.8827 107.607 28.5718C107.094 33.286 107.029 37.7294 107.414 41.9021C107.623 44.8788 108.069 47.4434 108.752 49.5958C108.899 49.9539 109.077 50.4278 109.286 51.0176C109.529 51.5484 109.827 52.1889 110.18 52.9388C110.977 54.4137 112.401 54.8981 114.452 54.3922C113.954 55.1239 113.265 55.6089 112.385 55.8474Z" fill="black"/>
</svg>
